HIERARCHY
ROOT Hips
{
	OFFSET -0.087744 88.518600 4.106688
	CHANNELS 6 Xposition Yposition Zposition Zrotation Yrotation Xrotation 
	JOINT Spine
	{
		OFFSET 0.000000 8.814246 -2.080107
		CHANNELS 3 Zrotation Yrotation Xrotation
		JOINT Spine1
		{
			OFFSET -0.000000 8.844141 -0.000000
			CHANNELS 3 Zrotation Yrotation Xrotation
			JOINT Spine2
			{
				OFFSET 0.000000 11.682268 0.000000
				CHANNELS 3 Zrotation Yrotation Xrotation
				JOINT Spine3
				{
					OFFSET 0.000000 11.746700 0.000000
					CHANNELS 3 Zrotation Yrotation Xrotation
					JOINT Neck
					{
						OFFSET 0.000000 17.658264 -0.000000
						CHANNELS 3 Zrotation Yrotation Xrotation
						JOINT Neck1
						{
							OFFSET -0.000000 5.101515 -0.000000
							CHANNELS 3 Zrotation Yrotation Xrotation
							JOINT Head
							{
								OFFSET -0.000000 5.101515 -0.000000
								CHANNELS 3 Zrotation Yrotation Xrotation
								JOINT HeadEnd
								{
									OFFSET 0.000000 11.655085 0.000000
									CHANNELS 3 Zrotation Yrotation Xrotation
									End Site
									{
										OFFSET 0.000000 0.000000 0.000000
									}
								}
							}
						}
					}
					JOINT RightShoulder
					{
						OFFSET -2.625389 11.175210 0.000000
						CHANNELS 3 Zrotation Yrotation Xrotation
						JOINT RightArm
						{
							OFFSET 0.000000 10.434715 -0.000000
							CHANNELS 3 Zrotation Yrotation Xrotation
							JOINT RightForeArm
							{
								OFFSET -0.000000 29.628420 0.000000
								CHANNELS 3 Zrotation Yrotation Xrotation
								JOINT RightHand
								{
									OFFSET -0.000000 22.857611 0.000000
									CHANNELS 3 Zrotation Yrotation Xrotation
									JOINT RightHandThumb1
									{
										OFFSET -2.867323 3.959563 2.944291
										CHANNELS 3 Zrotation Yrotation Xrotation
										JOINT RightHandThumb2
										{
											OFFSET -0.000000 3.350399 0.000000
											CHANNELS 3 Zrotation Yrotation Xrotation
											JOINT RightHandThumb3
											{
												OFFSET 0.000000 3.756509 -0.000000
												CHANNELS 3 Zrotation Yrotation Xrotation
												JOINT RightHandThumb4
												{
													OFFSET -0.000000 3.147345 0.000000
													CHANNELS 3 Zrotation Yrotation Xrotation
													End Site
													{
														OFFSET 0.000000 0.000000 0.000000
													}
												}
											}
										}
									}
									JOINT RightHandIndex1
									{
										OFFSET -0.086752 10.030893 2.345280
										CHANNELS 3 Zrotation Yrotation Xrotation
										JOINT RightHandIndex2
										{
											OFFSET 0.000000 4.061090 -0.000000
											CHANNELS 3 Zrotation Yrotation Xrotation
											JOINT RightHandIndex3
											{
												OFFSET 0.000000 3.248873 -0.000000
												CHANNELS 3 Zrotation Yrotation Xrotation
												JOINT RightHandIndex4
												{
													OFFSET 0.000000 2.639709 -0.000000
													CHANNELS 3 Zrotation Yrotation Xrotation
													End Site
													{
														OFFSET 0.000000 0.000000 0.000000
													}
												}
											}
										}
									}
									JOINT RightHandMiddle1
									{
										OFFSET 0.104102 9.502952 0.006768
										CHANNELS 3 Zrotation Yrotation Xrotation
										JOINT RightHandMiddle2
										{
											OFFSET 0.000000 4.568727 -0.000000
											CHANNELS 3 Zrotation Yrotation Xrotation
											JOINT RightHandMiddle3
											{
												OFFSET -0.000000 3.654981 0.000000
												CHANNELS 3 Zrotation Yrotation Xrotation
												JOINT RightHandMiddle4
												{
													OFFSET 0.000000 2.741236 0.000000
													CHANNELS 3 Zrotation Yrotation Xrotation
													End Site
													{
														OFFSET 0.000000 0.000000 0.000000
													}
												}
											}
										}
									}
									JOINT RightHandRing1
									{
										OFFSET 0.086752 8.921708 -2.267442
										CHANNELS 3 Zrotation Yrotation Xrotation
										JOINT RightHandRing2
										{
											OFFSET 0.000000 4.061090 -0.000000
											CHANNELS 3 Zrotation Yrotation Xrotation
											JOINT RightHandRing3
											{
												OFFSET -0.000000 3.654981 0.000000
												CHANNELS 3 Zrotation Yrotation Xrotation
												JOINT RightHandRing4
												{
													OFFSET 0.000000 2.741236 -0.000000
													CHANNELS 3 Zrotation Yrotation Xrotation
													End Site
													{
														OFFSET 0.000000 0.000000 0.000000
													}
												}
											}
										}
									}
									JOINT RightHandPinky1
									{
										OFFSET -0.173504 7.976997 -4.467199
										CHANNELS 3 Zrotation Yrotation Xrotation
										JOINT RightHandPinky2
										{
											OFFSET 0.000000 3.350399 0.000000
											CHANNELS 3 Zrotation Yrotation Xrotation
											JOINT RightHandPinky3
											{
												OFFSET 0.000000 2.842763 -0.000000
												CHANNELS 3 Zrotation Yrotation Xrotation
												JOINT RightHandPinky4
												{
													OFFSET -0.000000 2.639709 -0.000000
													CHANNELS 3 Zrotation Yrotation Xrotation
													End Site
													{
														OFFSET 0.000000 0.000000 0.000000
													}
												}
											}
										}
									}
									JOINT RightForeArmEnd
									{
										OFFSET 0.000000 0.000000 0.000000
										CHANNELS 3 Zrotation Yrotation Xrotation
										End Site
										{
											OFFSET 0.000000 0.000000 0.000000
										}
									}
								}
								JOINT RightArmEnd
								{
									OFFSET 0.000000 0.000000 0.000000
									CHANNELS 3 Zrotation Yrotation Xrotation
									End Site
									{
										OFFSET 0.000000 0.000000 0.000000
									}
								}
							}
						}
					}
					JOINT LeftShoulder
					{
						OFFSET 2.625389 11.175210 -0.000000
						CHANNELS 3 Zrotation Yrotation Xrotation
						JOINT LeftArm
						{
							OFFSET -0.000000 10.813635 0.000000
							CHANNELS 3 Zrotation Yrotation Xrotation
							JOINT LeftForeArm
							{
								OFFSET -0.000000 28.724781 0.000000
								CHANNELS 3 Zrotation Yrotation Xrotation
								JOINT LeftHand
								{
									OFFSET 0.644384 25.716167 -0.328871
									CHANNELS 3 Zrotation Yrotation Xrotation
									JOINT LeftHandThumb1
									{
										OFFSET 2.867323 3.959563 2.944291
										CHANNELS 3 Zrotation Yrotation Xrotation
										JOINT LeftHandThumb2
										{
											OFFSET -0.000000 3.350399 0.000000
											CHANNELS 3 Zrotation Yrotation Xrotation
											JOINT LeftHandThumb3
											{
												OFFSET -0.000000 3.756509 -0.000000
												CHANNELS 3 Zrotation Yrotation Xrotation
												JOINT LeftHandThumb4
												{
													OFFSET 0.000000 3.100000 -0.000000
													CHANNELS 3 Zrotation Yrotation Xrotation
													End Site
													{
														OFFSET 0.000000 0.000000 0.000000
													}
												}
											}
										}
									}
									JOINT LeftHandIndex1
									{
										OFFSET 0.086752 10.030893 2.345280
										CHANNELS 3 Zrotation Yrotation Xrotation
										JOINT LeftHandIndex2
										{
											OFFSET -0.000000 4.061090 0.000000
											CHANNELS 3 Zrotation Yrotation Xrotation
											JOINT LeftHandIndex3
											{
												OFFSET 0.000000 3.248873 0.000000
												CHANNELS 3 Zrotation Yrotation Xrotation
												JOINT LeftHandIndex4
												{
													OFFSET 0.000000 2.639709 -0.000000
													CHANNELS 3 Zrotation Yrotation Xrotation
													End Site
													{
														OFFSET 0.000000 0.000000 0.000000
													}
												}
											}
										}
									}
									JOINT LeftHandMiddle1
									{
										OFFSET -0.104102 9.502952 0.006768
										CHANNELS 3 Zrotation Yrotation Xrotation
										JOINT LeftHandMiddle2
										{
											OFFSET 0.000000 4.568727 -0.000000
											CHANNELS 3 Zrotation Yrotation Xrotation
											JOINT LeftHandMiddle3
											{
												OFFSET 0.000000 3.654981 0.000000
												CHANNELS 3 Zrotation Yrotation Xrotation
												JOINT LeftHandMiddle4
												{
													OFFSET -0.000000 2.741236 -0.000000
													CHANNELS 3 Zrotation Yrotation Xrotation
													End Site
													{
														OFFSET 0.000000 0.000000 0.000000
													}
												}
											}
										}
									}
									JOINT LeftHandRing1
									{
										OFFSET -0.086752 8.921708 -2.267442
										CHANNELS 3 Zrotation Yrotation Xrotation
										JOINT LeftHandRing2
										{
											OFFSET -0.000000 4.061090 -0.000000
											CHANNELS 3 Zrotation Yrotation Xrotation
											JOINT LeftHandRing3
											{
												OFFSET 0.000000 3.654981 0.000000
												CHANNELS 3 Zrotation Yrotation Xrotation
												JOINT LeftHandRing4
												{
													OFFSET -0.000000 2.741236 -0.000000
													CHANNELS 3 Zrotation Yrotation Xrotation
													End Site
													{
														OFFSET 0.000000 0.000000 0.000000
													}
												}
											}
										}
									}
									JOINT LeftHandPinky1
									{
										OFFSET 0.173504 7.976997 -4.467199
										CHANNELS 3 Zrotation Yrotation Xrotation
										JOINT LeftHandPinky2
										{
											OFFSET 0.000000 3.350399 0.000000
											CHANNELS 3 Zrotation Yrotation Xrotation
											JOINT LeftHandPinky3
											{
												OFFSET -0.000000 2.842763 -0.000000
												CHANNELS 3 Zrotation Yrotation Xrotation
												JOINT LeftHandPinky4
												{
													OFFSET -0.000000 2.639709 -0.000000
													CHANNELS 3 Zrotation Yrotation Xrotation
													End Site
													{
														OFFSET 0.000000 0.000000 0.000000
													}
												}
											}
										}
									}
									JOINT LeftForeArmEnd
									{
										OFFSET 0.000000 0.000000 0.000000
										CHANNELS 3 Zrotation Yrotation Xrotation
										End Site
										{
											OFFSET 0.000000 0.000000 0.000000
										}
									}
								}
								JOINT LeftArmEnd
								{
									OFFSET 0.000000 0.000000 0.000000
									CHANNELS 3 Zrotation Yrotation Xrotation
									End Site
									{
										OFFSET 0.000000 0.000000 0.000000
									}
								}
							}
						}
					}
				}
			}
		}
	}
	JOINT RightUpLeg
	{
		OFFSET -11.289943 0.000000 0.000000
		CHANNELS 3 Zrotation Yrotation Xrotation
		JOINT RightLeg
		{
			OFFSET -0.000000 -38.200325 -0.000000
			CHANNELS 3 Zrotation Yrotation Xrotation
			JOINT RightFoot
			{
				OFFSET -0.000000 -39.900856 -0.000000
				CHANNELS 3 Zrotation Yrotation Xrotation
				JOINT RightToeBase
				{
					OFFSET 0.000000 0.000000 15.261641
					CHANNELS 3 Zrotation Yrotation Xrotation
					JOINT RightToeBaseEnd
					{
						OFFSET 0.000000 0.000000 7.370709
						CHANNELS 3 Zrotation Yrotation Xrotation
						End Site
						{
							OFFSET 0.000000 0.000000 0.000000
						}
					}
				}
				JOINT RightLegEnd
				{
					OFFSET 0.000000 0.000000 0.000000
					CHANNELS 3 Zrotation Yrotation Xrotation
					End Site
					{
						OFFSET 0.000000 0.000000 0.000000
					}
				}
			}
			JOINT RightUpLegEnd
			{
				OFFSET 0.000000 0.000000 0.000000
				CHANNELS 3 Zrotation Yrotation Xrotation
				End Site
				{
					OFFSET 0.000000 0.000000 0.000000
				}
			}
		}
	}
	JOINT LeftUpLeg
	{
		OFFSET 11.315661 0.000000 -0.000000
		CHANNELS 3 Zrotation Yrotation Xrotation
		JOINT LeftLeg
		{
			OFFSET 0.000000 -38.200325 0.000000
			CHANNELS 3 Zrotation Yrotation Xrotation
			JOINT LeftFoot
			{
				OFFSET 0.000000 -39.900856 -0.000000
				CHANNELS 3 Zrotation Yrotation Xrotation
				JOINT LeftToeBase
				{
					OFFSET 0.000000 0.000000 15.261641
					CHANNELS 3 Zrotation Yrotation Xrotation
					JOINT LeftToeBaseEnd
					{
						OFFSET -0.000000 0.000000 7.539996
						CHANNELS 3 Zrotation Yrotation Xrotation
						End Site
						{
							OFFSET 0.000000 0.000000 0.000000
						}
					}
				}
				JOINT LeftLegEnd
				{
					OFFSET 0.000000 0.000000 0.000000
					CHANNELS 3 Zrotation Yrotation Xrotation
					End Site
					{
						OFFSET 0.000000 0.000000 0.000000
					}
				}
			}
			JOINT LeftUpLegEnd
			{
				OFFSET 0.000000 0.000000 0.000000
				CHANNELS 3 Zrotation Yrotation Xrotation
				End Site
				{
					OFFSET 0.000000 0.000000 0.000000
				}
			}
		}
	}
}
MOTION
Frames: 4
Frame Time: 0.016667
-10.060474 87.501915 9.187794 0.250330 -1.669669 -10.037437 2.563217 -0.637891 7.783704 -0.661045 -0.272264 3.828445 -0.238903 -6.601255 6.577951 -1.906286 -2.369486 6.985390 0.595915 3.755229 0.155956 0.041887 4.841409 -4.472022 -2.629129 -1.445111 -16.607294 0.000000 0.000000 0.000000 84.843513 -0.257909 9.667327 52.378941 -40.209000 -0.996865 -1.168236 11.450950 64.057175 -0.970747 -6.374308 3.661826 23.813622 -1.766332 34.928135 0.000004 0.000020 -57.471272 -0.000007 0.000026 -39.985661 0.000001 -0.000016 -0.000030 77.800148 -0.142359 -3.329463 54.234093 0.495310 0.054515 54.159065 0.524514 0.032543 0.000013 0.000011 -0.000031 75.619873 -0.087632 -0.255782 52.745525 0.170904 -0.013916 53.025227 0.157741 0.040112 0.000001 0.000129 0.000003 78.829567 0.046935 4.844262 55.442688 -0.295507 -0.167555 55.523399 -0.183817 -0.120951 -0.000019 0.001297 0.000002 77.492668 0.164768 9.614593 54.402584 -0.824350 -0.634767 54.357273 -0.738195 -0.419931 0.000649 -0.000016 -0.000070 0.000000 0.000000 0.000000 0.000000 0.000000 0.000000 -83.314850 -0.652100 9.933787 -59.823608 41.646370 -0.407451 1.385373 -3.940848 69.595665 14.702183 15.293027 -2.264059 -26.411446 1.495152 33.626797 -0.000005 0.000041 -65.162849 0.000017 0.000004 -45.601387 0.000506 -0.000032 -0.001818 -91.669891 -0.114700 -7.833963 -62.982388 0.223488 0.007274 -63.063869 0.248547 -0.050313 0.000042 -0.000125 0.000040 -90.190720 -0.027843 -2.342829 -62.421124 0.052500 -0.025184 -62.555519 0.048670 -0.036510 0.001908 -0.000049 0.000105 -96.932625 0.050274 3.682302 -67.848816 -0.123373 -0.016345 -67.719772 -0.097039 0.043856 -0.001881 0.000016 0.000005 -99.529350 0.197075 10.543037 -68.610733 -0.498277 0.116087 -68.990028 -0.422019 0.169905 -0.001211 -0.000015 -0.000046 0.000000 0.000000 0.000000 0.000000 0.000000 0.000000 0.616578 -9.001983 6.195153 -0.022169 -0.308649 14.357154 -2.876409 -10.586281 13.855585 -0.700852 1.082180 -17.317846 0.000000 0.000000 0.000000 0.000000 0.000000 0.000000 0.000000 0.000000 0.000000 9.242222 -5.530593 0.437085 0.255885 0.628093 21.459061 -3.564417 8.042079 19.893915 0.968626 -0.567819 -22.489803 0.000000 0.000000 0.000000 0.000000 0.000000 0.000000 0.000000 0.000000 0.000000 
-10.274390 87.535645 9.225240 0.254101 -1.892179 -10.044137 2.618772 -0.653224 7.804091 -0.653854 -0.285201 3.905930 -0.175919 -6.456374 6.605636 -1.865977 -2.313259 7.013104 0.699169 3.576821 -0.050594 0.065755 4.696157 -4.594008 -2.568509 -1.438859 -16.571871 0.000000 0.000000 0.000000 84.856964 -0.201381 9.820001 52.856171 -39.609421 -0.516323 -1.163477 11.538852 63.926422 -1.345837 -5.957472 3.897840 23.770624 -1.765839 34.950935 0.000004 0.000021 -57.347008 -0.000006 0.000026 -39.901272 0.000001 -0.000016 -0.000029 77.508133 -0.139160 -3.509760 54.023605 0.491224 0.052627 53.945580 0.518384 0.028928 0.000012 0.000011 -0.000030 75.330048 -0.086823 -0.390010 52.531967 0.168764 -0.017539 52.816689 0.156652 0.037407 -0.000000 0.000146 0.000003 78.596458 0.045965 4.772753 55.265144 -0.290059 -0.157995 55.349163 -0.181501 -0.111854 -0.000018 0.001315 0.000003 77.388977 0.158320 9.534904 54.292130 -0.810224 -0.588334 54.239811 -0.729718 -0.380303 0.000557 -0.000017 -0.000072 0.000000 0.000000 0.000000 0.000000 0.000000 0.000000 -83.248436 -0.572905 9.934856 -60.405125 41.355545 -1.079347 1.306152 -3.941998 68.155617 15.207934 15.241396 -3.359325 -26.385061 1.489605 33.641163 -0.000004 0.000042 -65.130524 0.000017 0.000003 -45.569786 0.000716 -0.000032 -0.001799 -91.733055 -0.111601 -7.923490 -62.974224 0.221178 0.010394 -63.054192 0.246960 -0.045796 0.000041 -0.000286 0.000040 -90.205177 -0.027346 -2.413407 -62.416855 0.051309 -0.024067 -62.546642 0.047924 -0.036253 0.001834 -0.000050 0.000093 -96.909805 0.048305 3.658789 -67.843727 -0.122303 -0.020834 -67.715660 -0.097236 0.039858 -0.001910 0.000016 0.000005 -99.510033 0.187530 10.523766 -68.629250 -0.498538 0.095999 -69.002647 -0.422084 0.153330 -0.001209 -0.000015 -0.000046 0.000000 0.000000 0.000000 0.000000 0.000000 0.000000 0.779964 -8.844706 6.325652 -0.016762 -0.302937 14.137014 -3.006011 -10.395808 13.905525 -0.704577 1.066742 -17.336079 0.000000 0.000000 0.000000 0.000000 0.000000 0.000000 0.000000 0.000000 0.000000 9.105686 -5.681413 0.336258 0.252665 0.616853 21.457369 -3.470931 7.976449 19.972813 0.935325 -0.556119 -22.535711 0.000000 0.000000 0.000000 0.000000 0.000000 0.000000 0.000000 0.000000 0.000000 
-10.469102 87.571152 9.275667 0.248410 -2.140145 -10.052185 2.670440 -0.665606 7.821509 -0.638805 -0.298158 3.983026 -0.115751 -6.299501 6.612004 -1.828196 -2.257800 7.037609 0.807819 3.412565 -0.221783 0.096871 4.569040 -4.692025 -2.516379 -1.437176 -16.542353 0.000000 0.000000 0.000000 84.850006 -0.136804 9.972591 53.213749 -39.064053 0.009036 -1.161268 11.605682 63.873611 -1.698373 -5.627357 4.192809 23.728516 -1.763294 34.976307 0.000004 0.000021 -57.231625 -0.000004 0.000025 -39.819408 0.000001 -0.000015 -0.000029 77.287186 -0.135549 -3.695267 53.859085 0.488113 0.052645 53.778671 0.513346 0.026724 0.000012 0.000010 -0.000030 75.104889 -0.085813 -0.520246 52.362694 0.166847 -0.019940 52.651527 0.155840 0.035503 -0.000001 0.000161 0.000003 78.423714 0.044850 4.713456 55.130173 -0.285021 -0.150804 55.217033 -0.179247 -0.104383 -0.000018 0.001354 0.000004 77.333366 0.151575 9.476466 54.220806 -0.796878 -0.550479 54.159561 -0.721824 -0.347649 0.000463 -0.000017 -0.000073 0.000000 0.000000 0.000000 0.000000 0.000000 0.000000 -83.168594 -0.498019 9.924270 -61.053528 40.973721 -1.880656 1.225909 -3.951318 66.665421 15.742943 15.138642 -4.411453 -26.346670 1.482367 33.664177 -0.000003 0.000042 -65.076355 0.000017 0.000003 -45.517418 0.000931 -0.000031 -0.001770 -91.796127 -0.108372 -8.058982 -62.957218 0.217561 0.005051 -63.036331 0.244126 -0.047965 0.000040 -0.000431 0.000039 -90.209663 -0.026853 -2.513994 -62.399517 0.049515 -0.026228 -62.525433 0.046661 -0.038543 0.001747 -0.000050 0.000081 -96.874237 0.046242 3.617919 -67.821564 -0.120429 -0.020637 -67.695061 -0.096803 0.039306 -0.001912 0.000017 0.000004 -99.475609 0.178046 10.494061 -68.630394 -0.496195 0.091115 -68.997932 -0.420080 0.148335 -0.001208 -0.000015 -0.000046 0.000000 0.000000 0.000000 0.000000 0.000000 0.000000 0.923696 -8.702172 6.452013 -0.012340 -0.297749 13.922703 -3.108749 -10.211986 13.948483 -0.711042 1.057101 -17.334887 0.000000 0.000000 0.000000 0.000000 0.000000 0.000000 0.000000 0.000000 0.000000 8.986471 -5.827903 0.220254 0.249911 0.605397 21.483339 -3.381651 7.891736 20.015242 0.902333 -0.547157 -22.566677 0.000000 0.000000 0.000000 0.000000 0.000000 0.000000 0.000000 0.000000 0.000000 
-10.643677 87.603592 9.340346 0.237708 -2.416452 -10.071044 2.711828 -0.673730 7.836873 -0.616073 -0.311055 4.059605 -0.063998 -6.130562 6.601111 -1.792631 -2.203713 7.061789 0.932325 3.268023 -0.357325 0.136347 4.470277 -4.767905 -2.475746 -1.439172 -16.528467 0.000000 0.000000 0.000000 84.837585 -0.069518 10.123223 53.410862 -38.596436 0.593322 -1.164614 11.645997 63.875797 -1.993560 -5.372384 4.529737 23.694351 -1.758728 35.000713 0.000004 0.000021 -57.142502 -0.000003 0.000025 -39.752991 0.000001 -0.000015 -0.000028 77.167412 -0.131418 -3.872463 53.765888 0.486340 0.055203 53.683510 0.509879 0.026367 0.000011 0.000010 -0.000029 74.978172 -0.084531 -0.635488 52.263458 0.165371 -0.020884 52.555794 0.155410 0.034587 -0.000001 0.000173 0.000003 78.351311 0.043566 4.674198 55.066387 -0.280930 -0.146112 55.155155 -0.177394 -0.098723 -0.000017 0.001407 0.000005 77.363838 0.144711 9.448066 54.216759 -0.785890 -0.521413 54.145149 -0.715494 -0.322454 0.000376 -0.000017 -0.000074 0.000000 0.000000 0.000000 0.000000 0.000000 0.000000 -83.088516 -0.425937 9.902223 -61.723507 40.517048 -2.768027 1.143020 -3.951441 65.075027 16.281151 14.935532 -5.437932 -26.300892 1.473685 33.693848 -0.000003 0.000042 -65.007233 0.000015 0.000002 -45.451042 0.001154 -0.000031 -0.001738 -91.855385 -0.104905 -8.229393 -62.935005 0.212805 -0.009214 -63.014114 0.240208 -0.057283 0.000038 -0.000553 0.000039 -90.208435 -0.026377 -2.639930 -62.373974 0.047189 -0.031774 -62.497299 0.044960 -0.043442 0.001636 -0.000051 0.000072 -96.842873 0.044129 3.563524 -67.791588 -0.117887 -0.015667 -67.667587 -0.095819 0.042343 -0.001876 0.000017 0.000004 -99.449570 0.169350 10.460513 -68.624031 -0.491551 0.101011 -68.986435 -0.416353 0.154618 -0.001210 -0.000015 -0.000047 0.000000 0.000000 0.000000 0.000000 0.000000 0.000000 1.043586 -8.570536 6.567412 -0.009144 -0.293365 13.757018 -3.182448 -10.018671 13.957789 -0.718592 1.053492 -17.309418 0.000000 0.000000 0.000000 0.000000 0.000000 0.000000 0.000000 0.000000 0.000000 8.878127 -5.962039 0.099456 0.247478 0.593133 21.548794 -3.300575 7.799738 20.008406 0.871856 -0.541100 -22.577990 0.000000 0.000000 0.000000 0.000000 0.000000 0.000000 0.000000 0.000000 0.000000 
